# xmcd
#
# Track frame offsets: 
#        150
#        21197
#        42038
#        60216
#        78964
#        108609
#        125860
#        147025
#        163430
#        187571
#        202566
#        219058
#        242198
#        263614
#        283938
#        308738
#
# Disc length: 4434 seconds
#
# Revision: 2
# Processed by: cddbd v1.5.2PL0 Copyright (c) Steve Scherf et al.
# Submitted via: ExactAudioCopyFreeDBPlugin 1.0
#
DISCID=d2115010
DTITLE=TESTCD - STE20试音极品01A
DYEAR=2010
DGENRE=stereo
TTITLE0=天边
TTITLE1=但愿人长久
TTITLE2=山茶花
TTITLE3=北京喜讯传边寨
TTITLE4=爱上负心的人
TTITLE5=车站
TTITLE6=烟花三月
TTITLE7=吻别
TTITLE8=三峡
TTITLE9=月亮代表我的心
TTITLE10=再见杨柳
TTITLE11=渔舟唱晚
TTITLE12=夜上海
TTITLE13=雪中莲
TTITLE14=坐上火车去拉萨
TTITLE15=牵手
EXTD=
EXTT0=
EXTT1=
EXTT2=
EXTT3=
EXTT4=
EXTT5=
EXTT6=
EXTT7=
EXTT8=
EXTT9=
EXTT10=
EXTT11=
EXTT12=
EXTT13=
EXTT14=
EXTT15=
PLAYORDER=
